<svg xmlns="http://www.w3.org/2000/svg" viewBox="0 0 64 64">
  <defs>
    <linearGradient id="bg" x1="0" y1="0" x2="1" y2="1">
      <stop offset="0%" stop-color="#111827" />
      <stop offset="100%" stop-color="#030712" />
    </linearGradient>
    <linearGradient id="accent" x1="0" y1="0" x2="1" y2="1">
      <stop offset="0%" stop-color="#f8d56b" />
      <stop offset="100%" stop-color="#d8a63a" />
    </linearGradient>
  </defs>
  <rect width="64" height="64" rx="16" fill="url(#bg)" />
  <path d="M20 17h24a3 3 0 0 1 0 6H26v8h12a3 3 0 0 1 0 6H26v4a7 7 0 0 0 7 7h11a3 3 0 0 1 0 6H33c-7.18 0-13-5.82-13-13V20a3 3 0 0 1 3-3Z" fill="url(#accent)" />
  <circle cx="47" cy="46" r="4" fill="#f3f4f6" opacity=".95" />
</svg>
